<svg version="1.1" id="Layer_1" xmlns="http://www.w3.org/2000/svg" xmlns:xlink="http://www.w3.org/1999/xlink" x="0px" y="0px" viewBox="0 0 500 500" style="width: 151px;" xml:space="preserve" data-imageid="social-media-1-84" imageName="Social Media 1" class="illustrations_image">
<style type="text/css">
	.st0_social-media-1-84{fill:#68E1FD;}
	.st1_social-media-1-84{fill:#093F68;}
	.st2_social-media-1-84{fill:#FFFFFF;}
	.st3_social-media-1-84{fill:#725858;}
	.st4_social-media-1-84{fill:#F56132;}
	.st5_social-media-1-84{fill:#FFC9B0;}
</style>
<g id="speech-bubble_social-media-1-84">
	<path class="st0_social-media-1-84 targetColor" d="M375.7,242.1H124.6c-7.5,0-13.7,6.1-13.7,13.7c0,0,0,0,0,0v117.5c0,7.5,6.1,13.7,13.6,13.7c0,0,0,0,0,0h193.8&#10;&#9;&#9;l30.8,23.7c1,0.8,2.5,0.6,3.3-0.4c0.3-0.4,0.5-0.9,0.5-1.4V387h22.9c7.5,0,13.7-6.1,13.7-13.7c0,0,0,0,0,0V255.8&#10;&#9;&#9;C389.4,248.2,383.3,242.1,375.7,242.1C375.7,242.1,375.7,242.1,375.7,242.1z" style="fill: rgb(104, 225, 253);"/>
	<path class="st1_social-media-1-84" d="M350.5,413c-0.9,0-1.8-0.3-2.5-0.9l-30.3-23.3H124.6c-8.6,0-15.5-6.9-15.5-15.5V255.8&#10;&#9;&#9;c0-8.6,6.9-15.5,15.5-15.5h251.1c8.6,0,15.5,6.9,15.5,15.5v117.5c0,8.6-6.9,15.5-15.5,15.5h-21v20.1&#10;&#9;&#9;C354.7,411.2,352.9,413,350.5,413L350.5,413z M124.6,243.9c-6.5,0-11.9,5.3-11.9,11.9v117.5c0,6.5,5.3,11.9,11.9,11.9h193.8&#10;&#9;&#9;c0.4,0,0.8,0.1,1.1,0.4l30.8,23.7c0.2,0.2,0.5,0.1,0.7-0.1c0.1-0.1,0.1-0.2,0.1-0.3V387c0-1,0.8-1.8,1.8-1.8l0,0h22.9&#10;&#9;&#9;c6.5,0,11.9-5.3,11.9-11.9V255.8c0-6.5-5.3-11.9-11.9-11.9H124.6z"/>
	<path class="st2_social-media-1-84" d="M183.6,345.1c-1.4-1.2-2.6-2.5-4-3.7c-3.8-3.3-7.5-6.7-11.3-10c-2.5-2.2-5-4.5-7.3-6.9&#10;&#9;&#9;c-2.1-2.1-3.7-4.6-4.9-7.4c-0.8-1.9-1.3-3.8-1.5-5.8c-0.2-1.8-0.3-3.6-0.3-5.4c0.1-6.1,4.1-11.5,9.9-13.5&#10;&#9;&#9;c6.2-2.1,11.7-0.6,16.4,3.9c1.1,1,2,2.2,2.8,3.5l0.2,0.3c0.1-0.1,0.1-0.2,0.2-0.3c1.7-2.8,4.1-5.1,7-6.6c2.5-1.3,5.4-1.9,8.2-1.6&#10;&#9;&#9;c3.2,0.2,6.2,1.4,8.6,3.5c2.7,2.3,4.5,5.4,5,8.9c0.3,1.8,0.3,3.6,0.1,5.4c-0.1,1.9-0.5,3.9-1,5.7c-0.8,2.9-2.3,5.5-4.2,7.9&#10;&#9;&#9;c-2,2.3-4.1,4.5-6.5,6.5c-3.4,3-6.9,6-10.4,9.1c-2.4,2.1-4.6,4.2-7,6.4L183.6,345.1z"/>
	<path class="st1_social-media-1-84" d="M183.6,347c-0.5,0-0.9-0.2-1.2-0.5l-1.3-1.2c-0.9-0.8-1.8-1.7-2.7-2.5c-3.2-2.8-6.4-5.7-9.6-8.5l-1.7-1.5&#10;&#9;&#9;c-2.6-2.2-5.1-4.5-7.4-7c-2.2-2.3-4-5-5.3-7.9c-0.8-2-1.4-4.1-1.6-6.3c-0.3-1.9-0.3-3.8-0.3-5.7c0.2-6.9,4.6-13,11.2-15.2&#10;&#9;&#9;c6.8-2.2,12.9-0.8,18.2,4.3c0.6,0.6,1.2,1.2,1.7,1.9c1.7-2.2,3.9-4,6.4-5.3c2.8-1.5,6-2.1,9.2-1.8c3.6,0.2,6.9,1.6,9.7,3.9&#10;&#9;&#9;c3,2.5,5,6.1,5.6,10c0.3,1.9,0.3,3.9,0.2,5.9c-0.1,2.1-0.5,4.1-1.1,6.1c-0.9,3.1-2.5,5.9-4.5,8.4c-2,2.4-4.3,4.7-6.7,6.8&#10;&#9;&#9;c-1.6,1.4-3.1,2.7-4.7,4.1c-1.9,1.7-3.8,3.3-5.7,5c-1.6,1.4-3.2,2.9-4.8,4.4l-2.4,2.2C184.5,346.9,184,347,183.6,347z M169.6,293.4&#10;&#9;&#9;c-1.6,0-3.3,0.3-4.8,0.8c-5.1,1.7-8.6,6.5-8.7,11.9c-0.1,1.7,0,3.4,0.2,5.1c0.2,1.8,0.7,3.6,1.4,5.4c1.1,2.5,2.7,4.9,4.6,6.9&#10;&#9;&#9;c2.3,2.4,4.6,4.6,7.1,6.7l1.7,1.5c3.2,2.8,6.4,5.7,9.6,8.5c0.9,0.8,1.9,1.7,2.8,2.5l0,0l1.1-1c1.6-1.5,3.2-3,4.9-4.4&#10;&#9;&#9;c1.9-1.7,3.8-3.4,5.7-5c1.6-1.3,3.1-2.7,4.7-4.1c2.3-1.9,4.3-4,6.3-6.3c1.8-2.1,3.1-4.5,3.9-7.1c0.5-1.7,0.8-3.5,0.9-5.3&#10;&#9;&#9;c0.2-1.7,0.1-3.3-0.1-5c-0.5-3.1-2-5.8-4.4-7.8c-2.1-1.8-4.8-2.9-7.6-3c-2.5-0.2-5,0.3-7.2,1.4c-2.6,1.4-4.8,3.4-6.3,5.9l-0.2,0.3&#10;&#9;&#9;c-0.3,0.5-0.9,0.9-1.5,0.9l0,0c-0.6,0-1.2-0.3-1.5-0.8l-0.2-0.3c-0.7-1.2-1.5-2.2-2.5-3.2C176.4,294.8,173.1,293.4,169.6,293.4&#10;&#9;&#9;L169.6,293.4z"/>
	<path class="st2_social-media-1-84" d="M247.2,305.7l-9.6,8.5l-5.8-6.7l15.7-13.2h9.5v48.1h-9.8L247.2,305.7z"/>
	<path class="st1_social-media-1-84" d="M257,344.2h-9.8c-1,0-1.8-0.8-1.8-1.8c0,0,0,0,0,0v-32.7l-6.6,5.8c-0.4,0.3-0.8,0.5-1.3,0.5&#10;&#9;&#9;c-0.5,0-0.9-0.3-1.2-0.6l-5.8-6.7c-0.3-0.4-0.5-0.8-0.4-1.3c0-0.5,0.3-0.9,0.6-1.2l15.7-13.2c0.3-0.3,0.7-0.4,1.2-0.4h9.5&#10;&#9;&#9;c1,0,1.8,0.8,1.8,1.8l0,0v48.1C258.8,343.4,258,344.2,257,344.2C257,344.2,257,344.2,257,344.2z M249,340.6h6.1v-44.5h-7&#10;&#9;&#9;l-13.8,11.6l3.4,3.9l8.3-7.3c0.8-0.7,1.9-0.6,2.6,0.2c0.3,0.3,0.4,0.7,0.4,1.2L249,340.6z"/>
	<path class="st2_social-media-1-84" d="M270.1,318.3c0-2.9,0.3-5.8,0.8-8.7c0.5-2.8,1.4-5.5,2.8-8c1.3-2.4,3.2-4.4,5.5-5.9c5.5-3,12.2-3,17.7,0&#10;&#9;&#9;c2.3,1.5,4.2,3.5,5.5,5.9c1.4,2.5,2.3,5.2,2.8,8c1,5.8,1,11.6,0,17.4c-0.5,2.8-1.4,5.5-2.8,8c-1.3,2.4-3.2,4.4-5.5,5.9&#10;&#9;&#9;c-5.5,3-12.2,3-17.7,0c-2.3-1.5-4.2-3.5-5.5-5.9c-1.4-2.5-2.3-5.2-2.8-8C270.3,324.2,270.1,321.3,270.1,318.3z M280.3,318.3&#10;&#9;&#9;c0,1.3,0,2.8,0.2,4.5c0.1,1.7,0.4,3.4,0.9,5.1c0.4,1.5,1.2,2.9,2.3,4.1c2.4,2.3,6.2,2.3,8.6,0c1.1-1.2,1.9-2.6,2.3-4.1&#10;&#9;&#9;c0.5-1.7,0.8-3.4,0.9-5.1c0.1-1.8,0.2-3.3,0.2-4.5s-0.1-2.8-0.2-4.5c-0.1-1.7-0.4-3.4-0.9-5.1c-0.4-1.5-1.2-3-2.3-4.1&#10;&#9;&#9;c-2.4-2.3-6.2-2.3-8.6,0c-1.1,1.2-1.8,2.6-2.3,4.1c-0.5,1.7-0.8,3.4-0.9,5.1C280.3,315.6,280.3,317.1,280.3,318.3z"/>
	<path class="st1_social-media-1-84" d="M288,345c-3.5,0.1-6.9-0.8-9.8-2.6c-2.5-1.6-4.6-3.9-6.1-6.5c-1.5-2.7-2.5-5.6-3-8.6c-1.1-6-1.1-12,0-18&#10;&#9;&#9;c0.5-3,1.5-5.9,3-8.6c1.5-2.6,3.5-4.9,6.1-6.5c6.1-3.4,13.6-3.4,19.7,0c2.5,1.6,4.6,3.9,6.1,6.5c1.5,2.7,2.5,5.6,3,8.6&#10;&#9;&#9;c1.1,6,1.1,12,0,18c-0.5,3-1.5,5.9-3,8.6c-1.5,2.6-3.5,4.9-6.1,6.5C294.9,344.2,291.5,345.1,288,345z M288,295.3&#10;&#9;&#9;c-2.7-0.1-5.5,0.6-7.8,2c-2,1.3-3.7,3.1-4.9,5.2c-1.3,2.3-2.1,4.8-2.6,7.5c-1,5.5-1,11.2,0,16.8c0.4,2.6,1.3,5.1,2.6,7.5&#10;&#9;&#9;c1.2,2.1,2.8,3.9,4.9,5.2c4.9,2.6,10.8,2.6,15.7,0c2-1.3,3.7-3.1,4.9-5.2c1.3-2.3,2.1-4.8,2.6-7.5c1-5.5,1-11.2,0-16.8&#10;&#9;&#9;c-0.4-2.6-1.3-5.1-2.6-7.5c-1.2-2.1-2.9-3.9-4.9-5.2C293.5,295.9,290.7,295.2,288,295.3L288,295.3z M288,335.6&#10;&#9;&#9;c-2.1,0.1-4.2-0.7-5.7-2.3c-1.2-1.4-2.1-3-2.7-4.8c-0.5-1.8-0.9-3.6-1-5.5c-0.1-1.8-0.2-3.4-0.2-4.7s0.1-2.9,0.2-4.7&#10;&#9;&#9;c0.1-1.9,0.5-3.7,1-5.5c0.5-1.8,1.4-3.4,2.7-4.8c3.1-3.1,8.1-3.1,11.3,0c1.3,1.4,2.2,3,2.7,4.8c0.5,1.8,0.9,3.6,1,5.5&#10;&#9;&#9;c0.1,1.8,0.2,3.4,0.2,4.7s-0.1,2.8-0.2,4.7c-0.1,1.9-0.5,3.7-1,5.5c-0.5,1.8-1.5,3.4-2.7,4.8C292.2,334.9,290.1,335.7,288,335.6&#10;&#9;&#9;L288,335.6z M288,304.6c-1.1-0.1-2.2,0.3-3,1.1c-0.9,1-1.5,2.2-1.9,3.5c-0.5,1.5-0.7,3.1-0.8,4.7c-0.1,1.7-0.2,3.2-0.2,4.4&#10;&#9;&#9;s0.1,2.7,0.2,4.4c0.1,1.6,0.4,3.2,0.8,4.7c0.4,1.3,1,2.5,1.9,3.5c1.7,1.5,4.2,1.5,5.9,0c0.9-1,1.5-2.2,1.9-3.4&#10;&#9;&#9;c0.5-1.5,0.7-3.1,0.8-4.7c0.1-1.7,0.2-3.2,0.2-4.4s0-2.7-0.2-4.4c-0.1-1.6-0.4-3.2-0.8-4.7c-0.4-1.3-1-2.5-1.9-3.4&#10;&#9;&#9;C290.1,305,289.1,304.6,288,304.6L288,304.6z"/>
	<path class="st2_social-media-1-84" d="M310.3,318.3c0-2.9,0.3-5.8,0.8-8.7c0.5-2.8,1.4-5.5,2.8-8c1.3-2.4,3.2-4.4,5.5-5.9c5.5-3,12.2-3,17.7,0&#10;&#9;&#9;c2.3,1.5,4.2,3.5,5.5,5.9c1.4,2.5,2.3,5.2,2.8,8c1,5.8,1,11.6,0,17.4c-0.5,2.8-1.4,5.5-2.8,8c-1.3,2.4-3.2,4.4-5.5,5.9&#10;&#9;&#9;c-5.5,3-12.2,3-17.7,0c-2.3-1.5-4.2-3.5-5.5-5.9c-1.4-2.5-2.3-5.2-2.8-8C310.6,324.2,310.3,321.3,310.3,318.3z M320.5,318.3&#10;&#9;&#9;c0,1.3,0,2.8,0.2,4.5c0.1,1.7,0.4,3.4,0.9,5.1c0.4,1.5,1.2,2.9,2.3,4.1c2.4,2.3,6.2,2.3,8.6,0c1.1-1.2,1.9-2.6,2.3-4.1&#10;&#9;&#9;c0.5-1.7,0.8-3.4,0.9-5.1c0.1-1.8,0.2-3.3,0.2-4.5s-0.1-2.8-0.2-4.5c-0.1-1.7-0.4-3.4-0.9-5.1c-0.4-1.5-1.2-3-2.3-4.1&#10;&#9;&#9;c-2.4-2.3-6.2-2.3-8.6,0c-1.1,1.2-1.8,2.6-2.3,4.1c-0.5,1.7-0.8,3.4-0.9,5.1C320.5,315.6,320.5,317.1,320.5,318.3z"/>
	<path class="st1_social-media-1-84" d="M328.2,345c-3.5,0.1-6.9-0.8-9.8-2.6c-2.5-1.6-4.6-3.9-6.1-6.5c-1.5-2.7-2.5-5.6-3-8.6c-1.1-6-1.1-12,0-18&#10;&#9;&#9;c0.5-3,1.5-5.9,3-8.6c1.5-2.6,3.5-4.9,6.1-6.5c6.1-3.4,13.6-3.4,19.7,0c2.5,1.6,4.6,3.9,6.1,6.5c1.5,2.7,2.5,5.6,3,8.6&#10;&#9;&#9;c1.1,6,1.1,12,0,18c-0.5,3-1.5,5.9-3,8.6c-1.5,2.6-3.5,4.9-6.1,6.5C335,344.2,331.6,345.1,328.2,345z M328.2,295.3&#10;&#9;&#9;c-2.7-0.1-5.5,0.6-7.8,2c-2,1.3-3.7,3.1-4.9,5.2c-1.3,2.3-2.1,4.8-2.6,7.5c-1,5.5-1,11.2,0,16.8c0.4,2.6,1.3,5.1,2.6,7.5&#10;&#9;&#9;c1.2,2.1,2.9,3.9,4.9,5.2c4.9,2.6,10.8,2.6,15.7,0c2-1.3,3.7-3.1,4.9-5.2c1.3-2.3,2.2-4.8,2.6-7.5c1-5.5,1-11.2,0-16.8&#10;&#9;&#9;c-0.4-2.6-1.3-5.1-2.6-7.5c-1.2-2.1-2.8-3.9-4.9-5.2C333.6,295.9,330.9,295.2,328.2,295.3L328.2,295.3z M328.2,335.6&#10;&#9;&#9;c-2.1,0.1-4.2-0.7-5.7-2.3c-1.2-1.4-2.1-3-2.7-4.8c-0.5-1.8-0.9-3.6-1-5.5c-0.1-1.8-0.2-3.4-0.2-4.7s0.1-2.9,0.2-4.7&#10;&#9;&#9;c0.1-1.9,0.5-3.7,1-5.5c0.5-1.8,1.4-3.4,2.7-4.8c3.1-3.1,8.1-3.1,11.3,0c1.3,1.4,2.2,3,2.7,4.8c0.5,1.8,0.9,3.6,1,5.5&#10;&#9;&#9;c0.1,1.8,0.2,3.4,0.2,4.7s-0.1,2.9-0.2,4.7c-0.1,1.9-0.5,3.7-1,5.5c-0.5,1.8-1.5,3.5-2.7,4.8C332.3,334.9,330.3,335.7,328.2,335.6&#10;&#9;&#9;L328.2,335.6z M328.2,304.6c-1.1-0.1-2.2,0.3-3,1.1c-0.9,1-1.5,2.2-1.9,3.5c-0.5,1.5-0.7,3.1-0.8,4.7c-0.1,1.7-0.2,3.2-0.2,4.4&#10;&#9;&#9;s0.1,2.7,0.2,4.4c0.1,1.6,0.4,3.2,0.8,4.7c0.4,1.3,1,2.5,1.9,3.5c1.7,1.5,4.2,1.5,5.9,0c0.9-1,1.5-2.2,1.9-3.4&#10;&#9;&#9;c0.5-1.5,0.7-3.1,0.9-4.7c0.1-1.7,0.2-3.2,0.2-4.4s0-2.7-0.2-4.4c-0.1-1.6-0.4-3.2-0.9-4.7c-0.4-1.3-1-2.5-1.9-3.4&#10;&#9;&#9;C330.3,305,329.2,304.6,328.2,304.6L328.2,304.6z"/>
</g>
<g id="character_social-media-1-84">
	<path class="st1_social-media-1-84" d="M299,222.1c0,0,3.5,13.5,0,18.1s-24.1,8.7-47.2,3.7v-21.8H299z"/>
	<path class="st1_social-media-1-84" d="M273.1,248.1c-7.3,0-14.6-0.8-21.7-2.4c-0.8-0.2-1.4-0.9-1.4-1.8v-21.8c0-1,0.8-1.8,1.8-1.8H299&#10;&#9;&#9;c0.8,0,1.6,0.6,1.8,1.4c0.4,1.5,3.6,14.5-0.3,19.7C297.7,244.9,287.1,248.1,273.1,248.1z M253.6,242.4c22,4.4,41.1,0.4,43.9-3.3&#10;&#9;&#9;c1.9-2.6,1.1-10.2,0-15.2h-44L253.6,242.4z"/>
	<path class="st3_social-media-1-84" d="M282.1,95.8c0,0,7.3-2.4,14.3,6.1c11.5,14.2,5.9,34.4,10.4,51c1.8,6.9,5.1,13.5,5.5,20.6&#10;&#9;&#9;c0.7,12.6-8.5,24.5-20.1,29.5s-25.1,4.2-37.2,0.7c-7-2.1-14-5.2-18.9-10.6c-5.2-5.7-7.6-13.5-8.1-21.2s0.6-15.4,1.8-23.1&#10;&#9;&#9;c2.2-14.4,3.1-30.4,9.7-43.6C248.2,89.6,271.9,82.5,282.1,95.8z"/>
	<path class="st1_social-media-1-84" d="M274,208.4c-6.6-0.1-13.2-1.1-19.5-3c-8.9-2.6-15.3-6.3-19.8-11.1c-6.3-6.9-8.2-16-8.6-22.3&#10;&#9;&#9;c-0.6-7.9,0.6-15.8,1.8-23.5c0.4-2.9,0.8-5.9,1.2-8.9c1.6-12,3.2-24.5,8.6-35.3c5.8-9.8,15.9-16.3,27.3-17.3&#10;&#9;&#9;c7.3-0.5,13.6,1.9,17.8,6.7c2.7-0.4,9-0.4,15,7c7.6,9.4,8.1,21.2,8.6,32.7c0.3,6.4,0.5,13.1,2.1,19c0.6,2.3,1.4,4.6,2.1,6.8&#10;&#9;&#9;c1.5,4.5,3.1,9.2,3.4,14.2c0.7,12.7-8,25.6-21.2,31.3C286.9,207.2,280.5,208.5,274,208.4z M266.9,90.6c-0.5,0-1.1,0-1.6,0.1&#10;&#9;&#9;c-10.1,0.9-19.1,6.6-24.3,15.3c-5.1,10.2-6.7,22.3-8.2,34.1c-0.4,3-0.8,6-1.2,8.9c-1.1,7.4-2.3,15.1-1.8,22.7&#10;&#9;&#9;c0.4,5.8,2.1,14,7.7,20.1c4,4.4,9.9,7.7,18.1,10.1c9.4,2.8,23.3,4.9,36-0.6c11.8-5.1,19.6-16.5,19-27.7c-0.2-4.5-1.7-8.7-3.2-13.2&#10;&#9;&#9;c-0.8-2.3-1.6-4.6-2.2-7c-1.7-6.3-2-13.2-2.2-19.8c-0.5-11.4-0.9-22.1-7.8-30.6c-6-7.4-12-5.6-12.3-5.5c-0.7,0.2-1.5,0-2-0.6&#10;&#9;&#9;C277.6,92.8,272.7,90.6,266.9,90.6z"/>
	<path class="st4_social-media-1-84" d="M299.3,222.1h-58.2l0,0v-34.4c0-8.4,6.8-15.2,15.2-15.2h27.9c8.4,0,15.2,6.8,15.2,15.2L299.3,222.1&#10;&#9;&#9;L299.3,222.1z"/>
	<path class="st1_social-media-1-84" d="M299.3,224h-58.2c-1,0-1.8-0.8-1.8-1.8c0,0,0,0,0,0v-33.5c0-9.9,8-17.9,17.9-17.9h26c9.9,0,17.9,8,17.9,17.9&#10;&#9;&#9;v33.4C301.1,223.1,300.4,224,299.3,224C299.4,224,299.3,224,299.3,224z M243,220.3h54.5v-31.6c0-7.9-6.4-14.2-14.2-14.2h-26&#10;&#9;&#9;c-7.9,0-14.3,6.4-14.3,14.2V220.3z"/>
	<path class="st5_social-media-1-84" d="M283.5,206.1c3.4,0.8,6.8,1.7,10.1,2.9c5,1.8,8.4,7.8,3.1,11.6c-2.3,1.5-5.1,2-7.8,1.4&#10;&#9;&#9;c-6.3-1.1-12.7-5.2-18.5-7.9c-3.2-1.5-5.3-1.3-8.8-0.9c-0.6,0.1-1.1,0.1-1.7-0.1c-0.5-0.2-0.9-0.7-0.9-1.2c0.1-1,1.7-1.4,1.9-2.4&#10;&#9;&#9;c0,0.3-7,1.8-8,2c-2.8,0.4-4-2.2-2.1-4.3c1-1,2.2-1.7,3.5-2.1c5.2-2.3,8.6-2.6,14.2-1.4c4,0.9,8.1,1,12.1,1.8&#10;&#9;&#9;C281.6,205.7,282.5,205.9,283.5,206.1z"/>
	<path class="st1_social-media-1-84" d="M291.2,224.1c-0.9,0-1.7-0.1-2.6-0.2c-4.8-0.9-9.5-3.3-14-5.6c-1.7-0.9-3.3-1.7-4.9-2.4&#10;&#9;&#9;c-2.8-1.3-4.5-1.1-7.8-0.7c-0.8,0.2-1.7,0.1-2.5-0.1c-1.1-0.4-1.8-1.2-2.1-2.3c-1.1,0.2-2.4,0.5-4,0.8c-1.8,0.4-3.7-0.4-4.6-2&#10;&#9;&#9;c-0.9-1.8-0.5-3.9,0.9-5.3c1.2-1.2,2.6-2.1,4.2-2.6c5.6-2.4,9.3-2.8,15.3-1.5c2,0.4,4.1,0.7,6.3,1c1.9,0.2,3.9,0.5,5.8,0.8&#10;&#9;&#9;c1,0.2,2,0.4,2.9,0.6l0,0c3.5,0.8,6.9,1.8,10.3,3c3.7,1.3,6.4,4.4,6.9,7.7c0.4,2.8-1,5.6-3.4,7.1&#10;&#9;&#9;C295.8,223.5,293.5,224.2,291.2,224.1z M265.3,211.2c2,0,4,0.4,5.8,1.3c1.7,0.8,3.4,1.6,5,2.5c4.3,2.2,8.7,4.5,13,5.2&#10;&#9;&#9;c2.2,0.5,4.5,0.1,6.4-1.1c1.3-0.7,2-2.2,1.9-3.6c-0.3-1.9-2.2-3.9-4.5-4.8c-3.2-1.1-6.5-2.1-9.9-2.9c-0.9-0.2-1.9-0.4-2.8-0.6&#10;&#9;&#9;c-1.8-0.4-3.7-0.6-5.5-0.8c-2.2-0.3-4.4-0.5-6.6-1c-5.2-1.1-8.2-0.8-13.1,1.3c-1.1,0.3-2,0.9-2.9,1.6c-0.4,0.5-0.5,1-0.4,1.2&#10;&#9;&#9;s0.4,0.2,0.9,0.2c1-0.2,6.2-1.3,7.3-1.7c0.4-0.2,0.8-0.3,1.2-0.3c1,0.1,1.7,1.1,1.6,2.1l0,0c0,0.1,0,0.2-0.1,0.3&#10;&#9;&#9;c-0.1,0.5-0.4,0.9-0.7,1.3C263,211.3,264.2,211.2,265.3,211.2z"/>
	<polygon class="st2_social-media-1-84" points="273,175.1 268.4,203.1 263.4,175.1 &#9;"/>
	<path class="st1_social-media-1-84" d="M268.4,204.9c-0.9,0-1.6-0.6-1.8-1.5l-5.1-27.9c-0.2-1,0.5-1.9,1.4-2.1c0.1,0,0.2,0,0.3,0h9.6&#10;&#9;&#9;c1,0,1.8,0.8,1.8,1.8c0,0.1,0,0.2,0,0.3l-4.6,27.9C270.1,204.2,269.3,204.9,268.4,204.9L268.4,204.9z M265.5,176.9l2.8,15.4&#10;&#9;&#9;l2.5-15.4H265.5z"/>
	<path class="st5_social-media-1-84" d="M270.8,179.2h-5.1c-1.2,0-2.2-1-2.2-2.2v-7.4l0,0h9.6l0,0v7.4C273,178.2,272,179.2,270.8,179.2z"/>
	<path class="st1_social-media-1-84" d="M268.9,181h-1.5c-3.3,0-5.9-2.6-5.9-5.9v-5.5c0-1,0.8-1.8,1.8-1.8c0,0,0,0,0,0h9.6c1,0,1.8,0.8,1.8,1.8v0v5.5&#10;&#9;&#9;C274.8,178.4,272.2,181,268.9,181z M265.2,171.4v3.7c0,1.3,1,2.3,2.3,2.3h1.5c1.3,0,2.3-1,2.3-2.3v-3.7H265.2z"/>
	<ellipse class="st5_social-media-1-84" cx="295.7" cy="144.6" rx="9.4" ry="8.1"/>
	<path class="st1_social-media-1-84" d="M295.7,154.4c-6.2,0-11.2-4.4-11.2-9.9s5-9.9,11.2-9.9s11.2,4.4,11.2,9.9S301.9,154.4,295.7,154.4z&#10;&#9;&#9; M295.7,138.3c-4.1,0-7.5,2.8-7.5,6.2s3.4,6.2,7.5,6.2s7.5-2.8,7.5-6.2S299.9,138.3,295.7,138.3z"/>
	<ellipse class="st5_social-media-1-84" cx="241.2" cy="144.6" rx="9.4" ry="8.1"/>
	<path class="st1_social-media-1-84" d="M241.2,154.4c-6.2,0-11.2-4.4-11.2-9.9s5-9.9,11.2-9.9s11.2,4.4,11.2,9.9S247.3,154.4,241.2,154.4z&#10;&#9;&#9; M241.2,138.3c-4.2,0-7.5,2.8-7.5,6.2s3.4,6.2,7.5,6.2s7.5-2.8,7.5-6.2S245.3,138.3,241.2,138.3z"/>
	<path class="st5_social-media-1-84" d="M251,120.7l9.1-11.7c0,0,2,7.2,3.3,11.7h14.4l3.4-10.5l4,10.5h11.2v22.1c0,15.6-12.6,28.2-28.2,28.2l0,0l0,0&#10;&#9;&#9;c-15.6,0-28.2-12.7-28.2-28.3c0,0,0,0,0,0v-21.9L251,120.7z"/>
	<path class="st1_social-media-1-84" d="M268.2,172.7c-16.6,0-30-13.4-30-30v-22c0-1,0.8-1.8,1.8-1.8h10.2l8.6-11c0.6-0.8,1.7-0.9,2.5-0.3&#10;&#9;&#9;c0.3,0.2,0.5,0.6,0.6,1l2.9,10.4h11.7l3-9.2c0.3-1,1.3-1.5,2.3-1.2c0.5,0.2,1,0.6,1.1,1.1l3.5,9.3h9.9l0,0c0.5,0,0.9,0.2,1.3,0.5&#10;&#9;&#9;c0.3,0.3,0.5,0.8,0.5,1.3v22.1C298.2,159.3,284.7,172.7,268.2,172.7z M241.8,122.5v20.1c0,14.6,11.8,26.4,26.4,26.4&#10;&#9;&#9;c14.6,0,26.4-11.8,26.4-26.4c0,0,0,0,0,0v-20.3h-9.3l0,0c-0.8,0-1.4-0.5-1.7-1.2l-2.1-5.6l-1.8,5.6c-0.3,0.7-0.9,1.3-1.7,1.3h-14.4&#10;&#9;&#9;l0,0c-0.8,0-1.5-0.5-1.8-1.3c-0.7-2.5-1.6-5.8-2.3-8.2l-6.9,8.9c-0.3,0.4-0.9,0.7-1.4,0.7L241.8,122.5z M251,120.7L251,120.7z"/>
	<circle class="st1_social-media-1-84" cx="283.2" cy="139.8" r="2.6"/>
	<circle class="st1_social-media-1-84" cx="255.5" cy="139.9" r="2.6"/>
	<path class="st1_social-media-1-84" d="M268.3,149.1c-0.8,0-1.6-0.1-2.4-0.3c-0.7-0.2-1.3-0.7-1.6-1.4c-0.7-1.5,0.1-4.4,2.2-8.6&#10;&#9;&#9;c0.5-0.9,1.6-1.1,2.5-0.6c0.8,0.5,1.1,1.5,0.7,2.3c-0.8,1.5-1.5,3.2-2,4.9c0.9,0,1.7,0,2.6-0.2c1-0.1,1.9,0.6,2,1.6&#10;&#9;&#9;c0.1,0.9-0.5,1.8-1.4,2C270.1,149,269.2,149.1,268.3,149.1z M267.7,146.2L267.7,146.2z"/>
	<path class="st1_social-media-1-84" d="M275.9,134.6c-1,0.1-1.9-0.7-1.9-1.7c-0.1-1,0.7-1.9,1.7-1.9c0.1,0,0.2,0,0.3,0h12.5l0,0&#10;&#9;&#9;c1,0.1,1.8,0.9,1.7,1.9c-0.1,0.9-0.8,1.6-1.7,1.7H275.9z"/>
	<path class="st1_social-media-1-84" d="M258.2,135h-0.1l-12.4-0.6c-1,0-1.8-0.8-1.8-1.8s0.8-1.8,1.8-1.8c0.1,0,0.1,0,0.2,0l12.5,0.6&#10;&#9;&#9;c1,0,1.8,0.9,1.8,1.9C260,134.2,259.2,135,258.2,135L258.2,135z"/>
	<path class="st1_social-media-1-84" d="M268.3,159.5c-7.5,0-13.2-5.4-13.3-5.5c-0.7-0.7-0.6-1.9,0.1-2.6c0.7-0.6,1.7-0.6,2.4,0l0,0&#10;&#9;&#9;c0.4,0.4,10.5,9.9,20.8-0.2c0.7-0.7,1.9-0.7,2.6,0c0.7,0.7,0.7,1.9,0,2.6C276.5,158.1,272.1,159.5,268.3,159.5z"/>
	<path class="st1_social-media-1-84" d="M251.9,224c-1,0-1.8-0.8-1.8-1.8v0v-31c0-1,0.8-1.8,1.8-1.8c1,0,1.8,0.8,1.8,1.8v31&#10;&#9;&#9;C253.8,223.2,252.9,224,251.9,224C251.9,224,251.9,224,251.9,224z"/>
	<rect x="204.4" y="217.3" class="st2_social-media-1-84" width="49.5" height="4.9"/>
	<path class="st1_social-media-1-84" d="M253.9,223.9h-49.5c-1,0-1.8-0.8-1.8-1.8c0,0,0,0,0,0v-4.9c0-1,0.8-1.8,1.8-1.8h0h49.5c1,0,1.8,0.8,1.8,1.8&#10;&#9;&#9;v4.9C255.7,223.1,254.9,223.9,253.9,223.9L253.9,223.9z M206.2,220.3h45.9v-1.2h-45.9V220.3z"/>
	<rect x="253.9" y="217.3" class="st2_social-media-1-84" width="22.3" height="4.9"/>
	<path class="st1_social-media-1-84" d="M276.2,223.9h-22.3c-1,0-1.8-0.8-1.8-1.8c0,0,0,0,0,0v-4.9c0-1,0.8-1.8,1.8-1.8h0h22.3c1,0,1.8,0.8,1.8,1.8&#10;&#9;&#9;v4.9C278,223.1,277.2,223.9,276.2,223.9C276.2,223.9,276.2,223.9,276.2,223.9z M255.7,220.3h18.6v-1.2h-18.6V220.3z"/>
	<polygon class="st2_social-media-1-84" points="204.4,217.3 253.9,217.3 243.7,183.1 194.2,183.1 &#9;"/>
	<path class="st1_social-media-1-84" d="M253.9,219.1h-49.5c-0.8,0-1.5-0.5-1.7-1.3l-10.2-34.1c-0.3-1,0.3-2,1.2-2.3c0.2,0,0.3-0.1,0.5-0.1h49.5&#10;&#9;&#9;c0.8,0,1.5,0.5,1.8,1.3l10.2,34.1c0.3,1-0.2,2-1.2,2.3C254.3,219.1,254.1,219.1,253.9,219.1z M205.8,215.4h45.7l-9.1-30.4h-45.7&#10;&#9;&#9;L205.8,215.4z"/>
	<path class="st5_social-media-1-84" d="M222.6,264.5l16.6-0.4l6.2-31.5c0.9-4.3-1.9-8.4-6.2-9.3c0,0,0,0,0,0l-3.6-0.7c-4.3-0.8-8.5,1.9-9.3,6.2&#10;&#9;&#9;L222.6,264.5z"/>
	<path class="st1_social-media-1-84" d="M222.6,266.3c-1,0-1.8-0.8-1.8-1.8c0-0.1,0-0.1,0-0.2l3.6-35.7c1-5.3,6.1-8.8,11.4-7.8c0,0,0,0,0.1,0l3.6,0.7&#10;&#9;&#9;c5.3,1,8.7,6.2,7.7,11.5c0,0,0,0,0,0l-6.2,31.5c-0.2,0.8-0.9,1.4-1.7,1.5L222.6,266.3L222.6,266.3z M234,224.3&#10;&#9;&#9;c-2.9,0-5.4,2.1-6,4.9l-3.4,33.4l13-0.3l5.9-30c0.6-3.3-1.5-6.5-4.8-7.2l-3.6-0.7C234.8,224.4,234.4,224.3,234,224.3L234,224.3z"/>
	<path class="st4_social-media-1-84" d="M239.1,264.1l-0.8,9.1c0,0-25,12.4-25.5,6.2s11.2-14.9,11.2-14.9L239.1,264.1z"/>
	<path class="st1_social-media-1-84" d="M215.6,282.9c-1,0-2-0.2-2.8-0.6c-1-0.6-1.7-1.6-1.8-2.8c-0.6-7,10.6-15.6,11.9-16.5c0.3-0.2,0.6-0.3,1-0.4&#10;&#9;&#9;l15.1-0.4c0.5,0,1,0.2,1.4,0.6c0.4,0.4,0.5,0.9,0.5,1.4l-0.8,9.1c-0.1,0.6-0.4,1.2-1,1.5C234.9,276.9,222.3,282.9,215.6,282.9z&#10;&#9;&#9; M224.6,266.3c-4.2,3.2-10.3,9.3-10,13c1.6,1.1,11.7-2.2,22-7.2l0.6-6.1L224.6,266.3z"/>
	<path class="st5_social-media-1-84" d="M245.4,265.8l16.2-3.6v-32.1c0-4.4-3.6-7.9-7.9-7.9h-3.7c-4.4,0-7.9,3.5-7.9,7.9L245.4,265.8z"/>
	<path class="st1_social-media-1-84" d="M245.4,267.6c-0.4,0-0.8-0.1-1.1-0.3c-0.4-0.3-0.7-0.8-0.7-1.3l-3.4-35.7c-0.1-5.4,4.2-9.8,9.6-9.9&#10;&#9;&#9;c0,0,0.1,0,0.1,0h3.7c5.4,0,9.7,4.4,9.7,9.7v32.1c0,0.9-0.6,1.6-1.4,1.8l-16.1,3.6C245.6,267.5,245.5,267.6,245.4,267.6z&#10;&#9;&#9; M249.9,224c-3.4,0-6.1,2.7-6.1,6.1l3.2,33.4l12.7-2.9v-30.6c0-3.4-2.7-6.1-6.1-6.1L249.9,224z"/>
	<path class="st4_social-media-1-84" d="M261.5,262.1l1,9.1c0,0-22.1,17-23.8,11s8.1-16.8,8.1-16.8L261.5,262.1z"/>
	<path class="st1_social-media-1-84" d="M240.5,285.3c-0.5,0-0.9-0.1-1.3-0.2c-1.1-0.4-2-1.2-2.3-2.4c-1.9-6.7,7.4-17.3,8.5-18.5&#10;&#9;&#9;c0.3-0.3,0.6-0.5,0.9-0.5l14.8-3.3c0.5-0.1,1,0,1.5,0.3c0.4,0.3,0.7,0.8,0.7,1.3l1,9.1c0.1,0.6-0.2,1.2-0.7,1.6&#10;&#9;&#9;C259.5,275.8,246.6,285.3,240.5,285.3z M247.7,267.1c-3.5,4-8.3,11.1-7.3,14.6c1.7,0.7,11.1-4.5,20.2-11.3l-0.6-6.1L247.7,267.1z"/>
	<path class="st1_social-media-1-84" d="M283.5,208L283.5,208c-1.1,0-1.9-0.9-1.8-1.9l1-19.8c0.1-1,0.9-1.8,1.9-1.7c1,0.1,1.8,0.9,1.7,1.9l-1,19.8&#10;&#9;&#9;C285.3,207.2,284.5,208,283.5,208z"/>
	<path class="st5_social-media-1-84" d="M205.5,202.7c1.2,1.4,1.8,3.1,1.9,4.9c0,1.8-0.8,3.5-2.3,4.6c-1.5,1-3.5,1-5-0.2c-1.9-1.6-3.5-6.9-2.5-9.3&#10;&#9;&#9;C199,199.2,203.5,200.3,205.5,202.7z"/>
	<path class="st1_social-media-1-84" d="M202.6,214.8c-1.4,0-2.7-0.5-3.8-1.3c-2.4-2-4.3-8.1-3-11.4c0.7-1.8,2.3-3.1,4.2-3.4c2.6-0.2,5.2,0.8,6.8,2.9&#10;&#9;&#9;c1.4,1.7,2.2,3.8,2.3,6.1c0,2.4-1.1,4.7-3.1,6.1C205,214.4,203.8,214.8,202.6,214.8z M200.9,202.3c-0.1,0-0.2,0-0.3,0&#10;&#9;&#9;c-0.6,0.1-1.2,0.5-1.4,1.2c-0.6,1.5,0.6,6.1,2,7.2c0.9,0.6,2,0.6,2.8,0c1-0.7,1.5-1.9,1.5-3.1c-0.1-1.4-0.6-2.7-1.5-3.8l0,0&#10;&#9;&#9;C203.3,202.9,202.1,202.3,200.9,202.3z"/>
</g>
<g id="love_social-media-1-84">
	<path class="st4_social-media-1-84" d="M171.2,171.7c-0.9-0.2-1.8-0.4-2.7-0.5l-7.5-1.3c-1.7-0.2-3.4-0.6-5-1c-1.5-0.4-2.8-1-4.1-1.9&#10;&#9;&#9;c-0.8-0.6-1.6-1.3-2.2-2.1c-0.6-0.7-1.1-1.5-1.6-2.3c-1.6-2.7-1.3-6.1,0.7-8.5c1.9-2.4,5.1-3.5,8.1-2.7c0.7,0.2,1.5,0.4,2.1,0.8&#10;&#9;&#9;l0.1,0.1v-0.2c0-1.7,0.4-3.3,1.3-4.7c0.7-1.2,1.8-2.2,3.1-2.9c1.4-0.8,3.1-1,4.6-0.8c1.8,0.3,3.4,1.1,4.5,2.5&#10;&#9;&#9;c0.6,0.7,1.1,1.5,1.5,2.3c0.5,0.9,0.8,1.8,1.1,2.7c0.4,1.5,0.5,3,0.2,4.5c-0.2,1.5-0.6,3.1-1.1,4.5c-0.7,2.2-1.4,4.4-2.1,6.7&#10;&#9;&#9;c-0.5,1.5-0.9,3.1-1.3,4.6L171.2,171.7z"/>
	<path class="st1_social-media-1-84" d="M171.1,173.5h-0.3l-0.9-0.2c-0.6-0.1-1.2-0.2-1.8-0.3c-2.1-0.4-4.2-0.7-6.2-1.1l-1.3-0.2&#10;&#9;&#9;c-1.7-0.3-3.5-0.6-5.1-1.1c-1.7-0.4-3.2-1.2-4.7-2.2c-0.9-0.7-1.8-1.5-2.5-2.4c-0.6-0.8-1.2-1.6-1.7-2.5c-2-3.3-1.6-7.6,0.9-10.5&#10;&#9;&#9;c2.4-2.9,6.2-4.2,9.9-3.3l0.3,0.1c0.2-1.2,0.7-2.3,1.3-3.3c0.9-1.5,2.2-2.8,3.8-3.6c3.8-2,8.5-1.2,11.4,2.1&#10;&#9;&#9;c0.7,0.8,1.3,1.7,1.8,2.7c0.5,1,0.9,2,1.2,3.1c0.4,1.7,0.5,3.5,0.3,5.2c-0.2,1.6-0.6,3.2-1.1,4.8l-0.9,3c-0.4,1.2-0.8,2.4-1.1,3.6&#10;&#9;&#9;c-0.3,1.1-0.6,2.1-0.9,3.2L173,172C172.8,172.8,172,173.5,171.1,173.5z M169.5,171.2l1.7,0.5L169.5,171.2z M154.9,153&#10;&#9;&#9;c-1.8,0-3.5,0.8-4.6,2.3c-1.5,1.8-1.7,4.4-0.5,6.4c0.4,0.7,0.9,1.4,1.4,2c0.5,0.7,1.2,1.3,1.9,1.8c1.1,0.7,2.3,1.3,3.5,1.6&#10;&#9;&#9;c1.6,0.4,3.1,0.8,4.7,1l1.3,0.2l6.3,1.1l1.1,0.2c0.3-1.1,0.6-2.1,0.9-3.1c0.4-1.2,0.8-2.5,1.1-3.7l0.9-3c0.4-1.4,0.8-2.8,1-4.2&#10;&#9;&#9;c0.2-1.3,0.1-2.5-0.2-3.8c-0.2-0.8-0.5-1.6-0.9-2.4c-0.3-0.7-0.8-1.3-1.3-1.9c-0.9-1-2.1-1.7-3.4-1.9c-1.2-0.2-2.5,0-3.5,0.6&#10;&#9;&#9;c-1,0.5-1.8,1.3-2.4,2.2c-0.7,1.1-1,2.4-1,3.8c0,0.6-0.3,1.3-0.9,1.6c-0.5,0.4-1.2,0.4-1.7,0.2l-0.2-0.1c-0.5-0.3-1.1-0.5-1.7-0.6&#10;&#9;&#9;C156,153.1,155.5,153,154.9,153z"/>
	<path class="st4_social-media-1-84" d="M199.8,129.1c-0.6-0.4-1.3-0.9-1.9-1.3c-1.8-1.1-3.5-2.3-5.3-3.4c-1.2-0.7-2.3-1.5-3.4-2.4&#10;&#9;&#9;c-1-0.8-1.8-1.7-2.5-2.8c-0.4-0.7-0.8-1.5-1-2.3c-0.2-0.7-0.4-1.5-0.4-2.2c-0.3-2.6,1-5,3.3-6.2c2.2-1.2,5-1,7,0.6&#10;&#9;&#9;c0.5,0.4,1,0.8,1.4,1.3l0.1,0.1l0.1-0.2c0.5-1.3,1.4-2.4,2.5-3.2c2.1-1.5,4.9-1.6,7.1-0.3c1.3,0.8,2.2,2,2.6,3.4&#10;&#9;&#9;c0.2,0.7,0.4,1.5,0.4,2.2c0.1,0.8,0.1,1.6-0.1,2.4c-0.2,1.2-0.6,2.4-1.3,3.5c-0.7,1.1-1.4,2.1-2.3,3.1c-1.2,1.5-2.5,2.9-3.7,4.4&#10;&#9;&#9;C201.5,126.9,200.6,127.9,199.8,129.1L199.8,129.1z"/>
	<path class="st1_social-media-1-84" d="M199.7,130.9c-0.4,0-0.7-0.1-1-0.3l-0.6-0.4c-0.4-0.3-0.8-0.6-1.3-0.9l-4.1-2.7l-1.2-0.8&#10;&#9;&#9;c-1.2-0.8-2.4-1.6-3.6-2.5c-1.2-0.9-2.1-2-2.9-3.2c-0.5-0.9-0.9-1.8-1.2-2.8c-0.2-0.8-0.4-1.7-0.5-2.5c-0.4-3.3,1.3-6.5,4.3-8&#10;&#9;&#9;c2.9-1.5,6.3-1.2,8.9,0.7c0.5-0.7,1.2-1.4,1.9-1.9c2.7-1.9,6.3-2,9.1-0.3c1.6,1,2.8,2.5,3.4,4.4c0.3,0.9,0.4,1.8,0.5,2.7&#10;&#9;&#9;c0.1,0.9,0.1,1.9-0.1,2.8c-0.2,1.5-0.7,2.9-1.5,4.2c-0.7,1.2-1.5,2.3-2.4,3.3l-1.7,2l-2,2.4c-0.6,0.7-1.1,1.4-1.7,2.1l-0.8,1&#10;&#9;&#9;C200.9,130.6,200.3,130.9,199.7,130.9z M191.6,109.5c-0.8,0-1.6,0.2-2.3,0.6c-1.6,0.8-2.5,2.6-2.3,4.4c0.1,0.7,0.2,1.3,0.4,1.9&#10;&#9;&#9;c0.2,0.7,0.4,1.3,0.8,1.9c0.5,0.9,1.3,1.7,2.1,2.3c1.1,0.8,2.2,1.6,3.3,2.3l1.2,0.8l4.1,2.7c0.2,0.1,0.4,0.2,0.5,0.4&#10;&#9;&#9;c0.5-0.6,1-1.3,1.5-1.9c0.7-0.8,1.4-1.6,2-2.4l1.7-2c0.8-0.9,1.5-1.9,2.1-2.9c0.5-0.9,0.9-1.8,1-2.8c0.1-0.7,0.1-1.3,0-2&#10;&#9;&#9;c0-0.6-0.1-1.2-0.3-1.8c-0.8-2.4-3.4-3.7-5.7-2.9c-0.4,0.2-0.9,0.4-1.3,0.7c-0.8,0.6-1.5,1.4-1.9,2.4c0,0.1,0,0.1-0.1,0.2&#10;&#9;&#9;c-0.3,0.5-0.8,0.9-1.4,1c-0.6,0.1-1.2-0.1-1.6-0.6l-0.1-0.2c-0.3-0.4-0.6-0.7-1-0.9C193.5,109.9,192.6,109.5,191.6,109.5&#10;&#9;&#9;L191.6,109.5z"/>
	<path class="st4_social-media-1-84" d="M334.5,176.9c-0.1-0.9-0.2-1.8-0.4-2.7c-0.4-2.5-0.9-5-1.3-7.5c-0.3-1.7-0.6-3.3-0.7-5c-0.1-1.5,0-3,0.4-4.5&#10;&#9;&#9;c0.3-1,0.7-1.9,1.2-2.8c0.5-0.8,1-1.5,1.6-2.2c2-2.4,5.3-3.3,8.2-2.2c2.9,1,5,3.6,5.2,6.7c0.1,0.8,0.1,1.5,0,2.3c0,0.1,0,0.1,0,0.2&#10;&#9;&#9;l0.2-0.1c1.5-0.6,3.2-0.7,4.8-0.4c1.4,0.3,2.7,1,3.8,2c2.6,2.3,3.2,6.2,1.5,9.2c-0.5,0.8-1,1.5-1.7,2.2c-0.7,0.7-1.4,1.4-2.2,1.9&#10;&#9;&#9;c-1.2,0.8-2.6,1.4-4.1,1.7c-1.5,0.3-3.1,0.5-4.6,0.5c-2.3,0.1-4.7,0.2-7,0.3c-1.6,0.1-3.2,0.2-4.8,0.3L334.5,176.9z"/>
	<path class="st1_social-media-1-84" d="M334.7,178.7c-0.9,0-1.7-0.6-1.9-1.5l-0.1-0.8c-0.1-0.6-0.2-1.3-0.3-1.9l-1-6l-0.3-1.5&#10;&#9;&#9;c-0.3-1.7-0.6-3.5-0.7-5.2c-0.2-1.7,0-3.4,0.5-5.1c0.3-1.1,0.8-2.2,1.4-3.2c0.5-0.9,1.1-1.7,1.8-2.5c2.5-3,6.6-4,10.2-2.7&#10;&#9;&#9;c3.6,1.2,6.1,4.4,6.4,8.2c0,0.1,0,0.2,0,0.3c1.2-0.2,2.4-0.1,3.5,0.1c1.7,0.4,3.3,1.2,4.6,2.4c1.5,1.3,2.5,3.1,2.9,5.1&#10;&#9;&#9;c0.4,2.2,0.1,4.4-1,6.3c-0.5,0.9-1.2,1.8-1.9,2.5c-0.8,0.8-1.6,1.6-2.5,2.2c-1.4,1-3.1,1.7-4.8,2c-1.6,0.3-3.3,0.5-4.9,0.6&#10;&#9;&#9;l-3.2,0.1l-3.8,0.2c-1.1,0.1-2.2,0.1-3.2,0.2l-1.5,0.1L334.7,178.7z M341,151.3c-1.7,0-3.2,0.7-4.3,2c-0.5,0.6-1,1.3-1.4,2&#10;&#9;&#9;c-0.5,0.7-0.8,1.5-1.1,2.3c-0.3,1.3-0.4,2.6-0.3,3.9c0.1,1.6,0.4,3.2,0.7,4.8l0.3,1.5c0.4,2,0.7,4,1,6c0.1,0.4,0.1,0.7,0.2,1.1&#10;&#9;&#9;c1.1-0.1,2.2-0.1,3.3-0.2l3.8-0.2l3.2-0.1c1.5,0,2.9-0.2,4.3-0.5c1.2-0.2,2.4-0.7,3.5-1.4c0.7-0.5,1.3-1.1,1.9-1.7&#10;&#9;&#9;c0.5-0.6,1-1.2,1.4-1.9c1.3-2.3,0.8-5.2-1.1-7c-0.8-0.8-1.8-1.3-2.9-1.5c-1.3-0.3-2.6-0.1-3.9,0.3c-0.6,0.2-1.3,0.1-1.8-0.3&#10;&#9;&#9;c-0.5-0.4-0.8-1-0.8-1.6c0,0,0-0.2,0-0.2c0.1-0.6,0.1-1.2,0-1.8c-0.2-2.4-1.8-4.5-4.1-5.3C342.2,151.4,341.6,151.3,341,151.3z"/>
</g>
</svg>