<svg id="_0225_social_media_2" xmlns="http://www.w3.org/2000/svg" viewBox="0 0 500 500" data-imageid="social-media-2-95" imageName="Social Media 2" class="illustrations_image" style="width: 151px;"><defs><style>.cls-1_social-media-2-95{fill:#f4a28c;}.cls-2_social-media-2-95{fill:#a5a5a5;}.cls-3_social-media-2-95,.cls-4_social-media-2-95{fill:#e6e6e6;}.cls-5_social-media-2-95{opacity:.03;}.cls-5_social-media-2-95,.cls-6_social-media-2-95,.cls-7_social-media-2-95{fill:none;}.cls-6_social-media-2-95{opacity:.04;}.cls-7_social-media-2-95{opacity:.6;}.cls-8_social-media-2-95{fill:#24285b;}.cls-9_social-media-2-95{fill:#000001;}.cls-4_social-media-2-95{opacity:.48;}.cls-10_social-media-2-95{fill:#ffd200;}.cls-11_social-media-2-95{fill:#68e1fd;}</style></defs><g id="sd_social-media-2-95" class="cls-5_social-media-2-95"><ellipse class="cls-9_social-media-2-95" cx="261.23" cy="432.07" rx="223.47" ry="24.93"/></g><g id="socmed_social-media-2-95"><path class="cls-10_social-media-2-95" d="m193.09,131.66c-4.43-.03-8.32,1.35-11.57,4.09-3.12,2.63-5.01,5.99-6.07,8.44-1.63-2.46-4.31-5.85-8.05-8.52-3.9-2.79-8.12-4.21-12.55-4.24-12.35-.07-20.49,9.97-18.92,23.36,1.69,14.46,14.47,24.43,33.81,39.51,3.28,2.56,7.01,5.47,10.89,8.56.51.41,1.13.64,1.75.64.62,0,1.19-.22,1.6-.62,3.16-3.06,6.21-5.92,8.9-8.45,15.84-14.88,26.3-24.7,24.61-39.17-1.56-13.39-12.06-23.54-24.41-23.61Z"/><path class="cls-3_social-media-2-95" d="m38.95,50.53l37.02,301.52h248.29l-37.02-301.52H38.95Zm248.73,205.11H86.81l-21.06-171.5h200.86l21.06,171.5Z"/><path class="cls-2_social-media-2-95" d="m115.95,272.64c-1.6,0-3,.52-4.16,1.52-1.12.96-1.79,2.18-2.16,3.07-.6-.88-1.58-2.1-2.93-3.05-1.42-.99-2.94-1.49-4.54-1.49-4.46.02-7.35,3.68-6.74,8.51.66,5.22,5.31,8.78,12.34,14.17,1.19.91,2.55,1.95,3.96,3.06.19.15.41.23.63.23s.43-.08.58-.23c1.13-1.12,2.22-2.16,3.18-3.09,5.66-5.43,9.4-9.02,8.74-14.25-.61-4.84-4.43-8.47-8.89-8.45Z"/><g class="cls-7_social-media-2-95"><path class="cls-2_social-media-2-95" d="m160.39,291.11c2.23-2.04,3.42-4.89,3-8.03-.81-6.1-7.33-10.97-14.54-10.89-7.22.08-12.41,5.08-11.59,11.18.81,6.1,7.33,10.97,14.54,10.89,2.02-.02,3.87-.44,5.49-1.15l7.81,4.99-4.71-6.98Z"/></g><g class="cls-7_social-media-2-95"><ellipse class="cls-2_social-media-2-95" cx="259.28" cy="283.62" rx="4.35" ry="4.92" transform="translate(-124.95 278.18) rotate(-46.76)"/></g><g class="cls-7_social-media-2-95"><ellipse class="cls-2_social-media-2-95" cx="273.52" cy="283.46" rx="4.35" ry="4.92" transform="translate(-120.36 288.51) rotate(-46.76)"/></g><g class="cls-7_social-media-2-95"><ellipse class="cls-2_social-media-2-95" cx="288.16" cy="283.3" rx="4.35" ry="4.92" transform="translate(-115.63 299.12) rotate(-46.76)"/></g><g class="cls-7_social-media-2-95"><polygon class="cls-2_social-media-2-95" points="299.51 352.05 98.65 352.05 94.2 315.79 295.06 315.79 299.51 352.05"/></g><polygon class="cls-2_social-media-2-95" points="199.06 71.34 137.4 71.34 136.21 61.67 197.88 61.67 199.06 71.34"/><polygon class="cls-4_social-media-2-95" points="436.53 110.03 344.05 110.03 339.79 75.13 432.27 75.13 436.53 110.03"/><polygon class="cls-4_social-media-2-95" points="442.77 161.41 350.3 161.41 346.03 126.51 438.51 126.51 442.77 161.41"/><g class="cls-6_social-media-2-95"><path class="cls-9_social-media-2-95" d="m181.55,229.87s-22.22-2.5-15.03,19.19c7.19,21.69,23.75,102.99,23.75,102.99h41.3l6.65-21.35-47.03-98.71-9.63-2.12Z"/></g></g><g id="person_social-media-2-95"><path class="cls-1_social-media-2-95" d="m368.16,213.64s34.4,3.47,42.56,51.94c8.16,48.47,43.67,159.04,43.67,159.04,0,0,16.32,2.1,14.88,10.55h-31.19s-46.24-86.33-69.91-122.92c-23.67-36.59-44.48-99.2,0-98.61Z"/><polygon class="cls-1_social-media-2-95" points="307.57 191.16 307.39 210.75 324.26 215.11 319.38 182.84 307.57 191.16"/><path class="cls-1_social-media-2-95" d="m299.77,165.32c-7.92-2.63-15.8,4.14-14.9,12.43.99,9.1,4.15,21.74,14.09,19.04,15.22-4.15,10.48-24.02,10.48-24.02,0,0-3.67-5.46-9.67-7.45Z"/><path class="cls-8_social-media-2-95" d="m342.89,384.16s-60.79-75.87-99.18-67.56c-38.39,8.32-65.51,97.38-65.51,97.38l23.52.53s26.92-54.47,50.87-51.91c16.38,1.75,36.54,51.91,36.54,51.91l53.77-30.35Z"/><path class="cls-11_social-media-2-95 targetColor" d="m259.67,241.48c26.48-31.16,70.29-42.44,108.5-27.84,16.69,6.37,31.22,18.34,31.18,40.7-.09,52.44-30.33,94.17-21.15,138.09l-91.43,15.34-13.34-56.17c-2.55-10.73-9.37-20.02-18.99-25.42-9.57-5.36-20.17-15.31-18.67-32.76,1.33-15.52,9.64-35.15,23.91-51.94Z" style="fill: rgb(104, 225, 253);"/><path class="cls-1_social-media-2-95" d="m302.2,179.99s.06-4.36,4.06-2.93c4,1.44,1.61,7.18-1.06,7.21-2.67.03-3-4.29-3-4.29Z"/><path class="cls-8_social-media-2-95" d="m378.12,390.14s12.61,31.41-16.11,42.93c-21.25,8.52-90.51,6.72-125.12,5.2-20.61-.9-27.69-27.89-10.17-38.78,11.25-6.99,30.45-12.87,62.4-15.32l89,5.98Z"/><g class="cls-6_social-media-2-95"><path class="cls-9_social-media-2-95" d="m305.3,286.85s-17.39,25.28,12.18,39.03c29.57,13.76,24.56,61.83,24.56,61.83l36.08,2.42s-7.1-22.11,9.23-70.7c16.33-48.59-78.96-84.1-78.96-84.1l-3.1,51.51Z"/></g><path class="cls-1_social-media-2-95" d="m181.8,414.07s-3.36,8.44-11.76,10.36c-8.4,1.92-12.96,12.24,5.4,10.56,18.36-1.68,28.44,1.2,25.8-8.88s-1.44-11.6-1.44-11.6l-17.99-.44Z"/><path class="cls-1_social-media-2-95" d="m317.6,229.33c-2.67-20.73-28.23-29.26-42.82-14.29-.21.21-.42.43-.62.65-20.88,21.75-18.78,91.85-18.78,91.85,0,0-45.77-58.11-54.89-73.95-9.12-15.84-17.76-28.18-23.04-26.57-5.28,1.61,8.39,15.26,8.39,15.26,0,0-13.7,5.55-9.61,14.18,4.09,8.64,13.68,9.12,13.68,9.12,0,0,36.4,139.72,84.18,108.84,24.82-16.04,50.06-74.07,43.5-125.1Z"/><path class="cls-8_social-media-2-95" d="m280.5,153.11s-2.01,14.44,11.88,19.2c13.88,4.75-17.61,40.31,15.01,64.95,32.62,24.64-10.89,60.47,27.5,73.91,38.39,13.44,67.19,16.52,78.39-18.94,11.2-35.45-5.76-62.65-32.95-81.85-27.2-19.2-41.27-22.72-47.99-49.59-6.72-26.88-50.55-28.16-51.83-7.68Z"/></g></svg>