<svg version="1.1" id="Layer_1" xmlns="http://www.w3.org/2000/svg" xmlns:xlink="http://www.w3.org/1999/xlink" x="0px" y="0px" viewBox="0 0 500 500" style="width: 151px;" xml:space="preserve" data-imageid="social-media-2-1" imageName="Social Media 2" class="illustrations_image">
<style type="text/css">
	.st0_social-media-2-1{fill:#FFFFFF;}
	.st1_social-media-2-1{fill:#231F20;}
	.st2_social-media-2-1{fill:#D1D3D4;}
	.st3_social-media-2-1{fill:#68E1FD;}
</style>
<g id="Instagram_Post_social-media-2-1">
	<path class="st0_social-media-2-1" d="M61.4,103.4l30.8,194.9h149.3l-30.8-194.9H61.4z"/>
	<path class="st1_social-media-2-1" d="M241.4,299H92.2c-0.3,0-0.6-0.3-0.7-0.6L60.7,103.5c-0.1-0.4,0.2-0.7,0.6-0.8c0,0,0.1,0,0.1,0h149.3&#10;&#9;&#9;c0.3,0,0.6,0.2,0.7,0.6l30.8,194.9C242.2,298.6,241.9,299,241.4,299C241.5,299,241.5,299,241.4,299L241.4,299z M92.8,297.6h147.9&#10;&#9;&#9;l-30.5-193.5H62.2L92.8,297.6z"/>
	<path class="st2_social-media-2-1" d="M109.8,256.5c-0.1,0-0.3,0-0.4-0.1l-0.3-0.2c-1.3-1.1-2.6-2.1-3.9-3.1l-0.2-0.1c-0.8-0.6-1.6-1.2-2.4-1.9&#10;&#9;&#9;c-0.6-0.5-1.2-1.1-1.7-1.8c-0.5-0.7-1-1.5-1.2-2.4c-0.2-0.6-0.3-1.2-0.4-1.8c-0.3-1.9,0.8-3.8,2.6-4.5c1.9-0.6,4-0.2,5.4,1.2&#10;&#9;&#9;c0.1,0.1,0.3,0.3,0.4,0.4c0.5-0.6,1.1-1.1,1.8-1.5c0.7-0.3,1.5-0.5,2.3-0.4c2.3,0.2,4.3,1.8,5,4c0.2,0.6,0.3,1.2,0.3,1.8&#10;&#9;&#9;c0,0.6,0,1.2-0.1,1.8c-0.2,0.9-0.6,1.7-1.1,2.5c-0.5,0.7-1.1,1.3-1.7,1.9l-3,3l-0.6,0.6l-0.3,0.3&#10;&#9;&#9;C110.3,256.3,110.1,256.5,109.8,256.5z M103.6,241.6c-0.4,0-0.8,0.1-1.2,0.2c-1.2,0.4-1.9,1.7-1.7,3c0.1,0.5,0.2,1.1,0.3,1.6&#10;&#9;&#9;c0.2,0.7,0.6,1.4,1,2c0.5,0.6,1,1.1,1.5,1.6c0.7,0.6,1.5,1.2,2.3,1.8l0.2,0.1c1.2,0.9,2.5,1.9,3.7,2.9l0.5-0.5l3-3&#10;&#9;&#9;c0.6-0.6,1.1-1.1,1.6-1.8c0.4-0.6,0.7-1.2,0.9-1.9c0.1-0.5,0.1-0.9,0.1-1.4c0-0.5-0.1-1-0.2-1.5c-0.2-0.8-0.7-1.5-1.3-2&#10;&#9;&#9;c-0.7-0.6-1.6-1-2.5-1.1c-1.3-0.1-2.5,0.5-3.1,1.7l-0.2,0.3c-0.2,0.3-0.6,0.5-0.9,0.3c-0.1,0-0.2-0.1-0.2-0.2l0.6-0.4l-0.6,0.4&#10;&#9;&#9;c-0.3-0.3-0.5-0.6-0.9-0.9C105.7,242.1,104.7,241.7,103.6,241.6L103.6,241.6z"/>
	<path class="st2_social-media-2-1" d="M138.5,256.4c-0.1,0-0.2,0-0.3-0.1l-3-1.6c-1,0.3-2,0.5-3.1,0.5c-4.7,0-9-3.3-9.7-7.4c-0.3-1.8,0.2-3.6,1.4-5&#10;&#9;&#9;c1.6-1.7,3.8-2.7,6.2-2.6c4.7,0,9,3.3,9.7,7.4c0.3,1.6-0.1,3.2-1,4.5l0.5,3.4c0,0.3-0.1,0.5-0.3,0.7&#10;&#9;&#9;C138.8,256.4,138.7,256.4,138.5,256.4z M135.3,253.2c0.1,0,0.2,0,0.3,0.1l2,1.1l-0.4-2.3c0-0.2,0-0.4,0.1-0.5&#10;&#9;&#9;c0.8-1,1.2-2.4,0.9-3.7c-0.5-3.4-4.3-6.2-8.3-6.2c-1.9-0.1-3.8,0.7-5.1,2.1c-0.9,1.1-1.3,2.5-1.1,3.9c0.5,3.4,4.3,6.2,8.3,6.2&#10;&#9;&#9;c1,0,1.9-0.2,2.9-0.5C135.1,253.3,135.2,253.2,135.3,253.2L135.3,253.2z"/>
	<path class="st2_social-media-2-1" d="M154.1,255.7L154.1,255.7c-0.3,0-0.6-0.2-0.6-0.5l-2-5.9l-7.1-3.4c-0.3-0.1-0.4-0.4-0.4-0.7&#10;&#9;&#9;c0-0.3,0.2-0.5,0.5-0.6l14.5-3.5c0.3-0.1,0.5,0,0.7,0.2c0.2,0.2,0.2,0.5,0.1,0.7l-5,13.2C154.7,255.5,154.4,255.7,154.1,255.7z&#10;&#9;&#9; M146.7,245.5l5.6,2.7c0.2,0.1,0.3,0.2,0.4,0.4l1.5,4.3l3.9-10.2L146.7,245.5z"/>
	<path class="st2_social-media-2-1" d="M152,249.5c-0.2,0-0.4-0.1-0.5-0.2c-0.3-0.3-0.3-0.7,0-1c0,0,0,0,0,0l7.1-7c0.3-0.3,0.7-0.3,1,0c0,0,0,0,0,0&#10;&#9;&#9;c0.3,0.3,0.3,0.7,0,1l-7.1,7C152.4,249.4,152.2,249.5,152,249.5z"/>
	<path class="st2_social-media-2-1" d="M223.9,266.6H103.3c-0.4,0-0.7-0.3-0.7-0.7c0-0.4,0.3-0.7,0.7-0.7h120.6c0.4,0,0.7,0.3,0.7,0.7&#10;&#9;&#9;C224.6,266.3,224.3,266.6,223.9,266.6z"/>
	<path class="st2_social-media-2-1" d="M207.6,277.6H105c-0.4,0-0.7-0.3-0.7-0.7c0-0.4,0.3-0.7,0.7-0.7c0,0,0,0,0,0h102.6c0.4,0,0.7,0.3,0.7,0.7&#10;&#9;&#9;C208.3,277.3,208,277.6,207.6,277.6z"/>
	<polygon class="st0_social-media-2-1" points="218.7,233.2 94.3,233.2 76.1,117.7 200.5,117.7 &#9;"/>
	<path class="st1_social-media-2-1" d="M218.7,233.9H94.3c-0.3,0-0.6-0.3-0.7-0.6L75.4,117.8c0-0.2,0-0.4,0.2-0.6c0.1-0.2,0.3-0.2,0.5-0.2h124.4&#10;&#9;&#9;c0.3,0,0.6,0.3,0.7,0.6l18.2,115.5c0,0.2,0,0.4-0.2,0.6C219.1,233.8,218.9,233.9,218.7,233.9z M94.9,232.5h123l-18-114.1h-123&#10;&#9;&#9;L94.9,232.5z"/>
</g>
<g id="Love_social-media-2-1">
	<path class="st3_social-media-2-1 targetColor" d="M143.6,151.6c0.3-0.6,0.6-1.1,0.8-1.6c3.4-6.5,10.3-10.3,17.6-9.5c5,0.4,9.8,2.4,13.6,5.8&#10;&#9;&#9;c3.3,2.9,5.7,6.6,7,10.8c0.7,2.6,1.1,5.2,1.2,7.9c0.2,2.5,0.1,5.1-0.4,7.6c-0.8,3.7-2.4,7.3-4.7,10.3c-2.3,3.1-4.9,6-7.6,8.6&#10;&#9;&#9;c-4.7,4.8-9.4,9.5-14,14.3c-1.4,1.4-2.7,2.9-4,4.3l-0.2,0.3l-1.3-1.1c-6-5-12.2-9.7-18.4-14.4c-4.1-3.1-8.1-6.1-12-9.5&#10;&#9;&#9;c-2.8-2.4-5.4-5.1-7.7-8c-2.3-3.1-4.1-6.5-5.2-10.2c-0.8-2.6-1.4-5.3-1.8-8.1c-1-8.2,3-15.2,10.2-17.7c7.7-2.7,15.2-0.8,22.3,5.1&#10;&#9;&#9;c1.6,1.4,3.1,2.9,4.4,4.6L143.6,151.6z" style="fill: rgb(104, 225, 253);"/>
</g>
<g id="Character_social-media-2-1">
	<path class="st0_social-media-2-1" d="M387.4,347.1l14.5,21.1c0,0,0.9,11.2,3.9,11.5s1.8-9.4,1.8-9.4s30.3,15.4,31,8s-20.7-19.5-20.9-20.2&#10;&#9;&#9;S405.3,340,405.3,340L387.4,347.1z"/>
	<path class="st1_social-media-2-1" d="M435.3,381c-7.1,0-22.3-7.2-26.9-9.5c0.2,2.3,0.3,6.8-1.2,8.3c-0.4,0.4-1,0.7-1.5,0.6c-3.2-0.2-4.3-9-4.5-11.9&#10;&#9;&#9;l-14.4-21c-0.1-0.2-0.2-0.4-0.1-0.6c0.1-0.2,0.2-0.4,0.4-0.4l17.9-7.1c0.3-0.1,0.6,0,0.8,0.2c3.5,5,11.5,16.5,12.4,18.1&#10;&#9;&#9;c0.2,0.2,1.2,0.9,2.3,1.6c9.5,6.4,19.2,13.6,18.7,19.1c-0.1,0.9-0.6,1.7-1.4,2.1C437.1,380.9,436.2,381.1,435.3,381z M407.6,369.6&#10;&#9;&#9;c0.1,0,0.2,0,0.3,0.1c6.8,3.4,25.2,11.9,29.4,9.6c0.4-0.2,0.6-0.6,0.6-1c0.5-5.4-13-14.4-18.1-17.8c-2.5-1.7-2.6-1.8-2.8-2.1&#10;&#9;&#9;c-0.4-0.7-7.2-10.7-12-17.5l-16.6,6.6l14,20.4c0.1,0.1,0.1,0.2,0.1,0.3c0.4,5.1,1.8,10.7,3.3,10.8c0.2,0,0.3,0,0.4-0.2&#10;&#9;&#9;c1.1-1.1,1-5.8,0.7-8.5c0-0.3,0.1-0.5,0.3-0.7C407.3,369.7,407.4,369.7,407.6,369.6z"/>
	<path class="st3_social-media-2-1 targetColor" d="M342.6,220.4c4.1,1.4,69.3,122.6,69.3,122.6l-22.5,11c0,0-70.6-67.2-73.4-88.6S342.6,220.4,342.6,220.4z" style="fill: rgb(104, 225, 253);"/>
	<path class="st0_social-media-2-1" d="M194.2,204.5l-13.1-17.6c0,0-2.7-16-4.5-19.4s-17.7-15.9-18.3-13.9s3.1,5.4,4.1,6.7c1.5,1.8,3,3.6,4.6,5.4&#10;&#9;&#9;c-4,0.7-8.7,4.2-11.1,7.5c-2.1,2.9-2.9,7-1.4,10.2c0.4,0.9,1.1,1.7,1.9,2.2c0.9,0.5,2,0.3,2.8-0.4l0.2,0.3c1.4,3,3.1,5.7,5.3,8.2&#10;&#9;&#9;c1.8,1.9,4.4,2.6,5.7,4.7c1.9,3,3.2,6.9,4.7,10.1l8.5,18.3L194.2,204.5z"/>
	<path class="st1_social-media-2-1" d="M183.5,227.5L183.5,227.5c-0.3,0-0.5-0.2-0.6-0.4l-8.5-18.3c-0.5-1.1-1-2.2-1.5-3.4c-0.9-2.3-2-4.5-3.2-6.6&#10;&#9;&#9;c-0.8-1-1.8-1.9-2.9-2.5c-1-0.6-1.9-1.3-2.7-2.1c-2.1-2.4-3.9-5.1-5.2-7.9c-0.9,0.4-1.9,0.4-2.8,0c-1-0.6-1.8-1.5-2.3-2.6&#10;&#9;&#9;c-1.5-3.6-0.9-7.8,1.5-10.9c2.6-3.5,6.3-6.1,10.4-7.5l-0.6-0.7c-1.1-1.2-2.2-2.5-3.2-3.8c-0.2-0.2-0.4-0.5-0.7-0.8&#10;&#9;&#9;c-2.1-2.3-4-4.8-3.5-6.5c0.1-0.4,0.5-0.7,0.9-0.7c2.7-0.2,17,11.3,18.7,14.5s4.2,17.6,4.6,19.4l13,17.4c0.2,0.2,0.2,0.5,0.1,0.7&#10;&#9;&#9;l-10.7,22.3C183.9,227.4,183.7,227.5,183.5,227.5z M159,184.5L159,184.5c0.3,0,0.5,0.2,0.6,0.4l0.2,0.4c1.3,2.9,3.1,5.6,5.2,8&#10;&#9;&#9;c0.7,0.7,1.6,1.3,2.5,1.9c1.3,0.7,2.4,1.7,3.3,2.9c1.3,2.2,2.4,4.5,3.3,6.9c0.5,1.1,1,2.3,1.4,3.3l7.9,17l9.9-20.6l-12.9-17.2&#10;&#9;&#9;c-0.1-0.1-0.1-0.2-0.1-0.3c0-0.2-2.7-15.9-4.4-19.1s-14.5-12.9-17.1-13.8c0.1,1.3,2.3,3.7,3.2,4.8c0.3,0.3,0.6,0.6,0.7,0.9&#10;&#9;&#9;c1,1.3,2.1,2.5,3.2,3.8l1.4,1.6c0.2,0.2,0.2,0.5,0.1,0.7c-0.1,0.2-0.3,0.4-0.5,0.4c-4,0.7-8.5,4.3-10.7,7.2&#10;&#9;&#9;c-2.1,2.7-2.6,6.3-1.3,9.5c0.3,0.8,0.9,1.5,1.6,1.9c0.6,0.3,1.4,0.2,1.9-0.2C158.6,184.6,158.8,184.5,159,184.5L159,184.5z"/>
	<path class="st0_social-media-2-1" d="M162.6,344.6c-0.4,0.8-32.1,39.1-32.1,39.1s-49.4,7.2-50,1s32-15.2,32-15.2l23.6-40.1L162.6,344.6z"/>
	<path class="st1_social-media-2-1" d="M91.8,387.9c-5.4,0-9.6-0.5-11.2-1.7c-0.5-0.3-0.8-0.9-0.8-1.5c-0.1-1.1-0.4-4.4,16.2-10.7&#10;&#9;&#9;c7.2-2.7,14.5-4.8,16-5.2l23.5-39.9c0.2-0.3,0.6-0.4,0.9-0.2l26.4,15.2c0.3,0.2,0.4,0.6,0.3,0.9c-0.4,0.8-24.8,30.2-32.2,39.2&#10;&#9;&#9;c-0.1,0.1-0.3,0.2-0.4,0.2C127.3,384.8,105.7,387.9,91.8,387.9z M136.4,330.3l-23.3,39.5c-0.1,0.2-0.2,0.3-0.4,0.3&#10;&#9;&#9;c-12.4,3.4-31.8,10.4-31.5,14.5c0,0.2,0.1,0.4,0.3,0.5c4.3,3.4,36.3-0.3,48.6-2.1c8.2-9.9,28.2-34.1,31.4-38.2L136.4,330.3z"/>
	<path class="st1_social-media-2-1" d="M283,305.8c0,0-94.7-43.9-103.7-40.3s-55.7,74.1-55.7,74.1l32.8,15.5c0,0,31.7-37.3,37.8-36.1&#10;&#9;&#9;s57.3,44.5,57.3,44.5S285.1,330.4,283,305.8z"/>
	<path class="st1_social-media-2-1" d="M251.4,364.1c-0.2,0-0.3-0.1-0.4-0.1c-14.2-12-52.1-43.4-57-44.3c-4.2-0.8-25,21.6-37.2,35.9&#10;&#9;&#9;c-0.2,0.2-0.6,0.3-0.8,0.2l-32.8-15.5c-0.3-0.2-0.5-0.6-0.3-0.9c0,0,0,0,0-0.1c1.9-2.9,46.9-70.7,56.1-74.4&#10;&#9;&#9;c1.5-0.6,5.9-2.4,55.8,18.8c24.5,10.3,48.2,21.3,48.5,21.5c0.2,0.1,0.4,0.3,0.4,0.6c0.9,10.4-4.2,23.4-15.1,38.6&#10;&#9;&#9;c-5,7-10.6,13.6-16.6,19.7C251.8,364.1,251.6,364.2,251.4,364.1z M193.8,318.2c0.2,0,0.3,0,0.5,0c6,1.2,51.5,39.5,57.1,44.2&#10;&#9;&#9;c3.9-4,32.5-33.8,30.9-56.3c-26.5-12.3-95.6-42.9-102.8-40.1c-6.9,2.8-38.7,48.7-55,73.2l31.6,14.9c1.6-1.9,8.7-10.1,16.3-18.1&#10;&#9;&#9;C187.9,319.8,192.2,318.2,193.8,318.2L193.8,318.2z"/>
	<path class="st1_social-media-2-1" d="M360.4,316.2c0,0,4.9,34.1-12.5,59.9s-159,26.4-175.8,6.6s4.8-44.8,52.9-49.9s45.4-15.1,45.4-15.1L360.4,316.2&#10;&#9;&#9;z"/>
	<path class="st1_social-media-2-1" d="M250.8,397.3c-35.9,0-71.2-4.7-79.3-14.2c-5.8-6.9-7.3-14.5-4.3-21.9c5.9-14.8,28-26,57.7-29.1&#10;&#9;&#9;c33-3.5,41.8-9.2,44.1-12.3c0.5-0.5,0.7-1.2,0.7-1.9c0-0.2,0-0.4,0.1-0.6c0.1-0.2,0.3-0.3,0.5-0.3l90-1.5c0.3,0,0.6,0.3,0.7,0.6&#10;&#9;&#9;c0,0.3,4.8,34.6-12.6,60.4c-7,10.4-35.3,18-75.6,20.2C265.6,397.1,258.2,397.3,250.8,397.3z M271,318.4c-0.1,0.7-0.4,1.4-0.8,2&#10;&#9;&#9;c-2.3,3.3-11.2,9.5-45.2,13.1c-29.1,3.1-50.8,13.9-56.5,28.2c-2.8,7-1.4,14,4.1,20.5c7.4,8.7,46.9,16,100.2,13.1&#10;&#9;&#9;c39.8-2.2,67.7-9.5,74.5-19.6c15.8-23.4,13-54.1,12.5-58.8L271,318.4z"/>
	<path class="st3_social-media-2-1 targetColor" d="M360.4,316.2c0,0-11.9-95.5-25.5-114.7s-47.2-22.4-62.8-9.9s-1.7,126.2-1.7,126.2S314,331.7,360.4,316.2z" style="fill: rgb(104, 225, 253);"/>
	<path class="st3_social-media-2-1 targetColor" d="M272,191.5c0,0-15.2,3.6-22.7,17.4s-15.4,32.6-15.4,32.6L193,198.2l-19.1,19.2c0,0,35,63.2,53.9,72.7&#10;&#9;&#9;c17.8,9,30.1-6.4,38.6-16.3c3.6-4.2,8.9-14.2,8.9-14.2L272,191.5z" style="fill: rgb(104, 225, 253);"/>
	<path class="st1_social-media-2-1" d="M265.8,151.4c-3.7,0-6.6-3-6.6-6.7c0-3.7,3-6.6,6.7-6.6c3.7,0,6.6,3,6.6,6.6&#10;&#9;&#9;C272.4,148.4,269.4,151.4,265.8,151.4C265.8,151.4,265.8,151.4,265.8,151.4z M265.8,139.5c-2.9,0-5.2,2.4-5.2,5.3s2.4,5.2,5.3,5.2&#10;&#9;&#9;c2.9,0,5.2-2.4,5.2-5.2C271,141.8,268.7,139.5,265.8,139.5z"/>
	<path class="st0_social-media-2-1" d="M268.6,149.3c0,0-6.9,11.4-5.3,13.7s6.6,0.5,6.6,0.5"/>
	<path class="st1_social-media-2-1" d="M266.3,164.9c-1.4,0.1-2.7-0.4-3.6-1.5c-1.7-2.4,3.6-11.7,5.3-14.4c0.2-0.3,0.6-0.5,1-0.3c0,0,0,0,0,0&#10;&#9;&#9;c0.3,0.2,0.5,0.6,0.3,1c0,0,0,0,0,0c-3.2,5.3-6.2,11.7-5.4,12.9c1.1,1.5,4.6,0.7,5.8,0.3c0.4-0.1,0.8,0.1,0.9,0.4&#10;&#9;&#9;c0.1,0.4-0.1,0.8-0.4,0.9C268.9,164.7,267.6,164.9,266.3,164.9z"/>
	<path class="st0_social-media-2-1" d="M269.6,134.6c-4.5,4-2.9,12-2.6,17.3c0.3,7.4,0.9,14.8,1.5,22.1c0.4,4.7,12.6,4.3,14.7,2.8l-2.6,11.7l26.5-3.9&#10;&#9;&#9;l-1.6-15.3c0,0,1.7-21.3-3.4-30.6s-15.2-8.5-15.2-8.5S274,130.7,269.6,134.6z"/>
	<path class="st1_social-media-2-1" d="M280.6,189.2c-0.2,0-0.4-0.1-0.5-0.2c-0.2-0.2-0.2-0.4-0.2-0.6l2.3-10.4c-2.8,0.8-8.4,0.9-11.7-0.6&#10;&#9;&#9;c-2.1-1-2.6-2.3-2.7-3.3c-0.7-7.3-1.2-14.8-1.5-22.2c0-0.9-0.1-1.8-0.2-2.9c-0.4-5.1-1-11.4,3.1-15c4.6-4,17.2-4.5,17.7-4.5&#10;&#9;&#9;c0.1,0,10.6-0.8,15.8,8.9c5.1,9.4,3.6,30.1,3.5,31l1.6,15.1c0,0.4-0.2,0.7-0.6,0.8l-26.5,3.9L280.6,189.2z M283.2,176.1&#10;&#9;&#9;c0.1,0,0.3,0,0.4,0.1c0.2,0.2,0.4,0.4,0.3,0.7l-2.4,10.7l24.8-3.6l-1.6-14.6c0-0.3,1.6-21.3-3.3-30.4c-2.9-5.3-8.5-8.4-14.5-8.1&#10;&#9;&#9;c-0.2,0-12.7,0.4-16.9,4.1l0,0c-3.5,3.1-3,9-2.6,13.8c0.1,1,0.2,2,0.2,2.9c0.3,7.4,0.9,14.8,1.5,22.1c0.1,0.9,0.7,1.6,1.9,2.1&#10;&#9;&#9;c3.5,1.6,10.3,1.1,11.6,0.2C282.9,176.2,283,176.1,283.2,176.1z M269.6,134.6L269.6,134.6z"/>
	<path class="st0_social-media-2-1" d="M312.3,188.2l-2.5-8.1l-32.5,3.1l-1.9,7.4C275.4,190.7,292.4,198.8,312.3,188.2z"/>
	<path class="st1_social-media-2-1" d="M291,194.3c-5.4,0.1-10.8-1-15.9-3c-0.3-0.1-0.5-0.5-0.4-0.8l1.9-7.4c0.1-0.3,0.3-0.5,0.6-0.5l32.5-3.1&#10;&#9;&#9;c0.3,0,0.6,0.2,0.7,0.5l2.5,8.1c0.1,0.3,0,0.7-0.3,0.8C306,192.4,298.6,194.3,291,194.3z M276.3,190.3c11.5,4.2,24.4,3.4,35.2-2.4&#10;&#9;&#9;l-2.1-7l-31.5,3L276.3,190.3z"/>
	<path class="st1_social-media-2-1" d="M361,305.1L361,305.1c-0.4,0-0.7-0.3-0.7-0.7v0c0-24.6-13-72.8-14.1-76.1c-0.1-0.4,0.1-0.8,0.4-0.9&#10;&#9;&#9;c0.4-0.1,0.8,0.1,0.9,0.4l0,0c1.1,3.3,14.2,51.8,14.2,76.6C361.7,304.8,361.4,305.1,361,305.1z"/>
	<path class="st0_social-media-2-1" d="M291.7,171c0,0.2,0,0.4,0,0.6c-0.1,10.7,2.1,21.3,6.5,31c2.7,5.8,6.2,11.4,11.3,15.4s11.3,6,17.6,6.9&#10;&#9;&#9;c5.4,0.8,11.1,0.9,16.3-1.2c8.5-3.3,14.2-12.1,15.3-21.1s-1.7-18.3-6.3-26.2c-4.9-8.3-12.3-14.7-17.3-22.8&#10;&#9;&#9;c-5.4-8.9-8.6-19.3-14.6-27.7c-9.6-13.4-29.9-18.2-45-10.7c-3.3-3.2-9.6-0.6-11.3,3.7c-1.4,3.9-1.1,8.2,0.8,11.8&#10;&#9;&#9;c0.3,0.4,4.9,5.4,4.7,3.8c0.6,4.1,3.3,6.1,6.6,8.8s7.2,4.5,10.7,6.8C296.1,155.9,292,162.2,291.7,171z"/>
	<path class="st1_social-media-2-1" d="M333.7,226.1c-2.2,0-4.4-0.2-6.6-0.5c-7.3-1.1-13.3-3.5-18-7.1s-8.3-8.6-11.5-15.6c-4.5-9.8-6.7-20.5-6.6-31.3&#10;&#9;&#9;V171c0.1-2,0.3-4.1,0.7-6.1c0.9-5.9,1.5-10.1-5-14.2c-1.2-0.8-2.4-1.5-3.7-2.2c-2.5-1.4-4.9-2.9-7.1-4.6l-0.4-0.4&#10;&#9;&#9;c-2.9-2.3-5.5-4.4-6.3-8.1c-1.7-0.7-4.7-4.3-4.7-4.4c-2-3.9-2.3-8.4-0.9-12.5c1.2-2.7,3.7-4.7,6.6-5.4c1.9-0.5,3.9-0.1,5.4,1.1&#10;&#9;&#9;c15.4-7.4,35.6-2.5,45.4,11.1c3.5,4.8,6,10.3,8.5,15.6c1.8,4.2,3.9,8.2,6.2,12.1c2.5,3.9,5.3,7.6,8.4,11c3.3,3.7,6.3,7.7,8.9,11.9&#10;&#9;&#9;c3.7,6.2,7.8,15.9,6.4,26.6c-1.3,9.9-7.5,18.4-15.8,21.7C340.4,225.6,337.1,226.2,333.7,226.1z M269.7,133.9c0.3,0,0.6,0.2,0.7,0.6&#10;&#9;&#9;c0.5,3.7,2.9,5.6,5.9,8l0.4,0.4c2.2,1.7,4.6,3.2,7,4.5c1.2,0.7,2.5,1.5,3.7,2.2c7.2,4.6,6.5,9.7,5.6,15.6c-0.3,2-0.5,3.9-0.6,5.9&#10;&#9;&#9;l0,0v0.6c-0.1,10.6,2.1,21.1,6.5,30.7c3.1,6.8,6.7,11.7,11.1,15.1s10.2,5.7,17.3,6.8c6.3,1,11.5,0.6,15.9-1.1&#10;&#9;&#9;c7.8-3.1,13.7-11.2,14.9-20.6c1.3-10.3-2.7-19.7-6.2-25.7c-2.6-4.1-5.6-8.1-8.9-11.7c-3.1-3.5-6-7.2-8.5-11.2&#10;&#9;&#9;c-2.3-4-4.4-8.1-6.3-12.3c-2.4-5.3-5-10.7-8.4-15.4c-9.5-13.2-29.3-17.8-44.1-10.5c-0.3,0.1-0.6,0.1-0.8-0.1&#10;&#9;&#9;c-1.2-1.1-2.9-1.5-4.5-1.1c-2.5,0.5-4.6,2.2-5.6,4.5c-1.3,3.7-1,7.7,0.8,11.2c1.1,1.3,2.3,2.5,3.7,3.6c0.1-0.1,0.2-0.1,0.3-0.1&#10;&#9;&#9;L269.7,133.9z M291.7,171L291.7,171z"/>
	<path class="st0_social-media-2-1" d="M268.5,168.5c0,0,5.9,3.3,8.7-2.7"/>
	<path class="st1_social-media-2-1" d="M272,170.1c-1.4,0-2.7-0.4-3.9-1c-0.3-0.2-0.5-0.6-0.3-1c0.2-0.3,0.6-0.5,1-0.3c1.4,0.8,3.1,1,4.6,0.6&#10;&#9;&#9;c1.4-0.5,2.5-1.6,3.1-3c0.2-0.4,0.6-0.5,0.9-0.3s0.5,0.6,0.3,0.9c-0.7,1.8-2.1,3.1-3.9,3.8C273.3,170,272.6,170.1,272,170.1z"/>
	<path class="st1_social-media-2-1" d="M299.1,153.4c-0.3,0-0.6-0.2-0.7-0.5c-0.2-1-0.6-1.9-1.1-2.8c-2.7-0.3-33.9-4.2-37.6-4.6&#10;&#9;&#9;c-0.4,0-0.6-0.4-0.6-0.8c0,0,0,0,0,0c0-0.4,0.4-0.6,0.7-0.6c0,0,0,0,0.1,0c12.8,1.6,37,4.6,37.7,4.6c0.4,0,1.1,0.1,2.2,3.8&#10;&#9;&#9;c0.1,0.4-0.1,0.8-0.5,0.9C299.2,153.3,299.1,153.3,299.1,153.4z M297.5,150L297.5,150z M297.5,150L297.5,150z"/>
	<path class="st0_social-media-2-1" d="M283,153.5c0-1.9,0.9-3.6,1.9-5.1c0.7-1.3,1.5-2.4,2.5-3.5c1-1,2.5-1.5,3.9-1.4c1.3,0.3,2.4,1.1,3,2.2&#10;&#9;&#9;c0.6,1.1,1,2.4,1.1,3.6c0.5,5.7-2.1,11.1-6.8,14.4l0.4-0.5"/>
	<path class="st1_social-media-2-1" d="M288.6,164.4c-0.2,0-0.4-0.1-0.5-0.2c-0.2-0.3-0.2-0.7,0-0.9l0.4-0.4c0.1-0.2,0.3-0.3,0.5-0.2l0,0&#10;&#9;&#9;c4-3.2,6.1-8.1,5.7-13.1c-0.1-1.2-0.4-2.3-1-3.3c-0.5-0.9-1.4-1.6-2.5-1.9c-1.2-0.1-2.5,0.3-3.4,1.2c-1,1-1.8,2.1-2.4,3.3&#10;&#9;&#9;c-0.8,1.4-1.8,3.1-1.8,4.8c0,0.4-0.3,0.7-0.7,0.7c-0.4,0-0.7-0.3-0.7-0.7c0-2.1,1.1-4,2-5.5c0.7-1.3,1.6-2.6,2.7-3.6&#10;&#9;&#9;c1.2-1.2,2.9-1.7,4.5-1.5c1.5,0.3,2.7,1.2,3.5,2.5c0.7,1.2,1.1,2.5,1.2,3.9c0.5,5.9-2.2,11.6-7.1,15&#10;&#9;&#9;C288.9,164.4,288.7,164.4,288.6,164.4z"/>
	
		<ellipse transform="matrix(1.570734e-02 -0.9999 0.9999 1.570734e-02 122.8227 411.7621)" class="st1_social-media-2-1" cx="270.6" cy="143.5" rx="2.6" ry="1"/>
	<path class="st1_social-media-2-1" d="M251.4,288.2c-0.3,0-0.5-0.1-0.6-0.4c-0.2-0.3-0.1-0.8,0.2-1c0,0,0,0,0.1,0c27.1-15.5,37.3-66.1,37.4-66.6&#10;&#9;&#9;c0.1-0.4,0.4-0.6,0.8-0.6c0.4,0.1,0.6,0.4,0.6,0.8c-0.1,0.5-10.4,51.8-38.1,67.6C251.7,288.2,251.6,288.2,251.4,288.2z"/>
	<path class="st0_social-media-2-1" d="M215.6,334.8c-0.3,0-0.6-0.2-0.7-0.5c-0.1-0.4,0.1-0.8,0.5-0.8c15-3.6,52.5-10.5,52.9-10.6&#10;&#9;&#9;c0.4-0.1,0.8,0.1,0.9,0.5c0.1,0.4-0.1,0.8-0.5,0.9c0,0-0.1,0-0.1,0c-0.4,0.1-37.9,7-52.8,10.6C215.7,334.8,215.7,334.8,215.6,334.8&#10;&#9;&#9;z"/>
</g>
</svg>